<svg width="24" height="24" viewBox="0 0 24 24" fill="none" xmlns="http://www.w3.org/2000/svg">
<g opacity="0.25">
<path fill-rule="evenodd" clip-rule="evenodd" d="M12 0C5.37258 0 0 5.37258 0 12C0 18.6274 5.37258 24 12 24C18.6274 24 24 18.6274 24 12C24 5.37258 18.6274 0 12 0ZM18.2695 13.2775C18.356 12.8562 18.4001 12.4239 18.4001 11.9911C18.4001 11.558 18.356 11.1248 18.2695 10.7045C18.1851 10.2931 18.0601 9.88872 17.8963 9.50333C17.7363 9.12389 17.5379 8.75813 17.306 8.41734C17.0776 8.07845 16.8144 7.76137 16.5254 7.47145C16.2357 7.18309 15.9169 6.92129 15.5784 6.69224C15.2366 6.46099 14.8706 6.26282 14.4912 6.10181C14.1046 5.93859 13.6999 5.81347 13.2889 5.72982C12.867 5.6437 12.4333 5.6 11.9998 5.6C11.5661 5.6 11.1323 5.6437 10.711 5.72982C10.2994 5.81345 9.89474 5.93857 9.50846 6.10181C9.12908 6.26285 8.76279 6.46099 8.42091 6.69224C8.08245 6.92129 7.76369 7.18309 7.47461 7.47145C7.18523 7.76137 6.92207 8.07845 6.69332 8.41734C6.46268 8.75813 6.2639 9.12386 6.10328 9.50333C5.9395 9.88872 5.8142 10.2931 5.72951 10.7045C5.64384 11.1248 5.6001 11.558 5.6001 11.9911C5.6001 12.4239 5.64386 12.8562 5.72948 13.2775C5.81418 13.6888 5.93948 14.0926 6.10326 14.4786C6.26388 14.8578 6.46265 15.2232 6.69329 15.564C6.92205 15.9026 7.1852 16.2203 7.47458 16.5098C7.76366 16.7982 8.08243 17.0606 8.42088 17.29C8.76277 17.5203 9.12905 17.7185 9.50844 17.8792C9.89471 18.0421 10.2994 18.1669 10.711 18.2512C11.1323 18.3379 11.566 18.3822 11.9998 18.3822C12.4333 18.3822 12.867 18.3379 13.2889 18.2512C13.6999 18.1669 14.1046 18.0421 14.4912 17.8792C14.8706 17.7185 15.2365 17.5203 15.5784 17.29C15.9169 17.0606 16.2356 16.7982 16.5253 16.5098C16.8144 16.2203 17.0776 15.9026 17.306 15.564C17.5379 15.2232 17.7363 14.8578 17.8963 14.4786C18.0601 14.0926 18.1851 13.6888 18.2695 13.2775Z" fill="white"/>
<path fill-rule="evenodd" clip-rule="evenodd" d="M11.9997 6.53369C13.3835 6.53369 14.647 7.04763 15.6093 7.89491L15.6088 7.89563C15.583 7.93421 14.8005 9.10455 12.755 9.87027C11.846 8.20359 10.8501 6.87158 10.7207 6.69849L10.7118 6.6866C11.1246 6.58737 11.5556 6.53369 11.9997 6.53369ZM13.5389 11.4749C13.4255 11.2087 13.3026 10.9438 13.1758 10.6835C15.3199 9.80912 16.199 8.55484 16.2203 8.52447L16.2206 8.52404C16.9875 9.45366 17.451 10.6411 17.4635 11.9349L17.457 11.9335C17.3136 11.9037 15.4987 11.5262 13.657 11.7577C13.6186 11.6641 13.5792 11.5704 13.5389 11.4749ZM17.3958 12.8561C17.1527 14.3772 16.2811 15.6903 15.0538 16.5173C14.9982 16.1884 14.7069 14.5862 13.99 12.6189C15.7542 12.3365 17.2833 12.8199 17.3958 12.8561ZM12.9659 12.8717L12.9526 12.876L12.9526 12.876L12.9526 12.876C12.9449 12.8784 12.9372 12.8808 12.9297 12.8836C9.70488 14.0062 8.65177 16.2685 8.64038 16.2932C9.56826 17.0138 10.7321 17.4485 11.9996 17.4485C12.7565 17.4485 13.4775 17.2946 14.1335 17.016C14.0525 16.5391 13.735 14.8677 12.9659 12.8717ZM12.1501 11.0399C9.3359 11.8812 6.63543 11.8207 6.53856 11.817L6.53686 11.8711C6.53551 11.911 6.53418 11.9506 6.53418 11.9911C6.53418 13.3932 7.06389 14.6714 7.93456 15.6379C7.93268 15.6351 9.42841 12.9853 12.3779 12.0329C12.4492 12.0092 12.5217 11.988 12.5936 11.9674C12.4564 11.6572 12.3067 11.3464 12.1501 11.0399ZM6.65137 10.8658C7.00608 9.17563 8.14364 7.77321 9.66779 7.05451C9.74061 7.15159 10.7513 8.52121 11.6973 10.1995C9.10068 10.8884 6.84341 10.8676 6.65662 10.8658L6.65137 10.8658Z" fill="white"/>
</g>
</svg>
