<svg width="37" height="30" viewBox="0 0 37 30" fill="none" xmlns="http://www.w3.org/2000/svg">
<g clip-path="url(#clip0_1_356)">
<path d="M29.9 14.94C29.9 23.2 23.2 29.89 14.94 29.89C6.69 29.89 0 23.2 0 14.94C0 6.69 6.69 0 14.94 0C19.98 0 24.43 2.48 27.13 6.3C27.45 6.73 27.73 7.17 27.99 7.63C28.9 9.25 29.52 11.08 29.76 13.02C29.83 13.46 29.86 13.9 29.88 14.35C29.9 14.54 29.9 14.74 29.9 14.94Z" fill="#FFAF15"/>
<path d="M19.4998 23.32L9.08984 12.92L13.7698 8.24001L19.4898 13.97L31.6498 1.76001L36.3298 6.43001L19.4998 23.32Z" fill="#158FFF"/>
<path d="M29.7598 13.02L19.4998 23.32L9.08984 12.92L13.7698 8.23999L19.4898 13.97L27.1298 6.29999C27.4498 6.72999 27.7298 7.16999 27.9898 7.62999C28.8998 9.24999 29.5198 11.08 29.7598 13.02Z" fill="#15ABFF"/>
</g>
<defs>
<clipPath id="clip0_1_356">
<rect width="36.33" height="29.89" fill="white"/>
</clipPath>
</defs>
</svg>
