<svg width="29" height="44" viewBox="0 0 29 44" fill="none" xmlns="http://www.w3.org/2000/svg">
<g clip-path="url(#clip0_1_351)">
<path d="M23.6102 14.13V43.3L14.0002 36.88L4.4502 43.3V14.13C4.4502 8.83999 8.7402 4.54999 14.0302 4.54999C16.6802 4.54999 19.0702 5.61999 20.8002 7.35999C22.5402 9.08999 23.6102 11.48 23.6102 14.13Z" fill="#FF360C"/>
<path d="M14.03 28.06C21.7786 28.06 28.06 21.7786 28.06 14.03C28.06 6.28144 21.7786 0 14.03 0C6.28144 0 0 6.28144 0 14.03C0 21.7786 6.28144 28.06 14.03 28.06Z" fill="#FFAF15"/>
<path d="M23.6102 14.13V24.29C21.1102 26.64 17.7302 28.07 14.0302 28.07C10.3302 28.07 6.9602 26.63 4.4502 24.28V14.13C4.4502 8.83999 8.7402 4.54999 14.0302 4.54999C16.6802 4.54999 19.0702 5.61999 20.8002 7.35999C22.5402 9.08999 23.6102 11.48 23.6102 14.13Z" fill="#FF810C"/>
</g>
<defs>
<clipPath id="clip0_1_351">
<rect width="28.07" height="43.3" fill="white"/>
</clipPath>
</defs>
</svg>
