<svg width="24" height="24" viewBox="0 0 24 24" fill="none" xmlns="http://www.w3.org/2000/svg">
<g clip-path="url(#clip0_1_2405)">
<path d="M17.9571 11.9743C17.9571 15.5143 15.0857 18.3814 11.5457 18.3814C8.00996 18.3814 5.14282 15.5143 5.14282 11.9743C5.14282 8.43855 8.00996 5.57141 11.5457 5.57141C13.7057 5.57141 15.6128 6.63427 16.77 8.27141C16.9071 8.4557 17.0271 8.64427 17.1385 8.84141C17.5285 9.5357 17.7943 10.32 17.8971 11.1514C17.9271 11.34 17.94 11.5286 17.9485 11.7214C17.9571 11.8028 17.9571 11.8886 17.9571 11.9743Z" fill="#FFAF15"/>
<path d="M13.4999 15.5657L9.03845 11.1085L11.0442 9.10283L13.4956 11.5585L18.707 6.32568L20.7127 8.32711L13.4999 15.5657Z" fill="#158FFF"/>
<path d="M17.897 11.1514L13.4999 15.5657L9.03845 11.1086L11.0442 9.10285L13.4956 11.5586L16.7699 8.27142C16.907 8.45571 17.027 8.64428 17.1385 8.84142C17.5285 9.53571 17.7942 10.32 17.897 11.1514Z" fill="#15ABFF"/>
</g>
<defs>
<clipPath id="clip0_1_2405">
<rect width="15.57" height="12.81" fill="white" transform="translate(5.14282 5.57141)"/>
</clipPath>
</defs>
</svg>
