<svg width="48" height="26" viewBox="0 0 48 26" fill="none" xmlns="http://www.w3.org/2000/svg">
<g clip-path="url(#clip0_1_336)">
<path d="M30.5001 12.63L23.5201 19.62L21.5701 21.57C16.6401 26.5 8.63012 26.5 3.70012 21.57C-1.23988 16.63 -1.23988 8.63 3.70012 3.7C6.17012 1.23 9.40012 0 12.6401 0C15.8701 0 19.1101 1.23 21.5701 3.7L23.5201 5.65L30.5001 12.63Z" fill="#158FFF"/>
<path d="M43.34 3.70004C48.27 8.63004 48.27 16.63 43.34 21.57C38.41 26.5 30.41 26.5 25.47 21.57L16.54 12.64L25.47 3.71004C30.41 -1.22996 38.41 -1.22996 43.34 3.70004Z" fill="#00D9EA"/>
<path opacity="0.5" d="M23.5213 5.65249L16.5381 12.6416L23.5272 19.6248L30.5104 12.6357L23.5213 5.65249Z" fill="#158FFF"/>
</g>
<defs>
<clipPath id="clip0_1_336">
<rect width="47.04" height="25.27" fill="white"/>
</clipPath>
</defs>
</svg>
