<svg width="24" height="24" viewBox="0 0 24 24" fill="none" xmlns="http://www.w3.org/2000/svg">
<g opacity="0.25">
<path fill-rule="evenodd" clip-rule="evenodd" d="M12 0C5.37258 0 0 5.37258 0 12C0 18.6274 5.37258 24 12 24C18.6274 24 24 18.6274 24 12C24 5.37258 18.6274 0 12 0ZM9.36174 5.63867C10.0444 5.6076 10.2625 5.6 12.0007 5.6H11.9987C13.7374 5.6 13.9547 5.6076 14.6374 5.63867C15.3187 5.66987 15.7841 5.77774 16.1921 5.936C16.6134 6.09934 16.9694 6.31801 17.3254 6.67401C17.6814 7.02975 17.9001 7.38682 18.0641 7.80776C18.2214 8.21469 18.3294 8.67977 18.3614 9.36111C18.3921 10.0438 18.4001 10.2619 18.4001 12.0001C18.4001 13.7382 18.3921 13.9558 18.3614 14.6385C18.3294 15.3196 18.2214 15.7848 18.0641 16.1918C17.9001 16.6126 17.6814 16.9697 17.3254 17.3255C16.9698 17.6815 16.6133 17.9007 16.1925 18.0641C15.7853 18.2224 15.3197 18.3303 14.6383 18.3615C13.9557 18.3925 13.7382 18.4001 11.9999 18.4001C10.2619 18.4001 10.0439 18.3925 9.3612 18.3615C8.68 18.3303 8.21479 18.2224 7.80759 18.0641C7.38692 17.9007 7.02985 17.6815 6.67424 17.3255C6.31837 16.9697 6.0997 16.6126 5.9361 16.1917C5.77797 15.7848 5.6701 15.3197 5.63876 14.6384C5.60783 13.9557 5.6001 13.7382 5.6001 12.0001C5.6001 10.2619 5.6081 10.0436 5.63863 9.36097C5.6693 8.6799 5.7773 8.21469 5.93597 7.80762C6.09997 7.38682 6.31864 7.02975 6.67464 6.67401C7.03038 6.31814 7.38745 6.09947 7.80839 5.936C8.21533 5.77774 8.6804 5.66987 9.36174 5.63867Z" fill="white"/>
<path fill-rule="evenodd" clip-rule="evenodd" d="M11.4265 6.75331C11.538 6.75313 11.6579 6.75319 11.7873 6.75325L12.0006 6.75331C13.7094 6.75331 13.912 6.75944 14.5868 6.79011C15.2108 6.81864 15.5495 6.92291 15.7751 7.01051C16.0737 7.12651 16.2867 7.26518 16.5105 7.48918C16.7345 7.71319 16.8732 7.92652 16.9895 8.22519C17.0771 8.45053 17.1815 8.7892 17.2099 9.4132C17.2405 10.0879 17.2472 10.2905 17.2472 11.9986C17.2472 13.7066 17.2405 13.9092 17.2099 14.5839C17.1813 15.2079 17.0771 15.5466 16.9895 15.7719C16.8735 16.0706 16.7345 16.2833 16.5105 16.5071C16.2865 16.7311 16.0739 16.8698 15.7751 16.9858C15.5497 17.0738 15.2108 17.1778 14.5868 17.2064C13.9121 17.237 13.7094 17.2437 12.0006 17.2437C10.2917 17.2437 10.0891 17.237 9.41447 17.2064C8.79046 17.1776 8.45179 17.0733 8.22606 16.9857C7.92739 16.8697 7.71405 16.731 7.49005 16.507C7.26604 16.283 7.12738 16.0702 7.01111 15.7714C6.92351 15.5461 6.81911 15.2074 6.79071 14.5834C6.76004 13.9087 6.75391 13.706 6.75391 11.997C6.75391 10.2879 6.76004 10.0863 6.79071 9.4116C6.81924 8.7876 6.92351 8.44893 7.01111 8.22332C7.12711 7.92465 7.26604 7.71132 7.49005 7.48732C7.71405 7.26331 7.92739 7.12465 8.22606 7.00838C8.45166 6.92038 8.79046 6.81638 9.41447 6.78771C10.0049 6.76104 10.2337 6.75304 11.4265 6.75171V6.75331ZM15.4169 7.81598C14.9929 7.81598 14.6489 8.15959 14.6489 8.58373C14.6489 9.00773 14.9929 9.35173 15.4169 9.35173C15.8409 9.35173 16.1849 9.00773 16.1849 8.58373C16.1849 8.15972 15.8409 7.81572 15.4169 7.81572V7.81598ZM8.71387 12C8.71387 10.185 10.1854 8.7134 12.0004 8.71333C13.8155 8.71333 15.2867 10.1849 15.2867 12C15.2867 13.8151 13.8157 15.2861 12.0006 15.2861C10.1855 15.2861 8.71387 13.8151 8.71387 12Z" fill="white"/>
<path fill-rule="evenodd" clip-rule="evenodd" d="M12.0005 9.8667C13.1787 9.8667 14.1339 10.8218 14.1339 12.0001C14.1339 13.1782 13.1787 14.1334 12.0005 14.1334C10.8223 14.1334 9.86719 13.1782 9.86719 12.0001C9.86719 10.8218 10.8223 9.8667 12.0005 9.8667V9.8667Z" fill="white"/>
</g>
</svg>
