<svg width="65" height="64" viewBox="0 0 65 64" fill="none" xmlns="http://www.w3.org/2000/svg">
<g clip-path="url(#clip0_1_250)">
<path d="M0.200195 32.0003C0.200195 14.3279 14.5263 0 32.2007 0C49.8736 0 64.2001 14.3279 64.2001 32.0003C64.2001 49.6736 49.8736 64 32.2007 64C14.5263 64 0.200195 49.6731 0.200195 32.0003Z" fill="#C0C0C0"/>
<path d="M1.14355 32.0002C1.14355 14.8489 15.0478 0.944794 32.2002 0.944794C49.3521 0.944794 63.2569 14.8489 63.2569 32.0002C63.2569 49.1515 49.3522 63.0567 32.2002 63.0567C15.0478 63.0562 1.14355 49.1516 1.14355 32.0002Z" fill="white"/>
<path d="M32.2002 1.95575C15.6063 1.95575 2.15576 15.4072 2.15576 31.9999C2.15576 48.5932 15.6058 62.0441 32.2002 62.0441C48.793 62.0441 62.2446 48.5932 62.2446 31.9999C62.2446 15.4072 48.7935 1.95575 32.2002 1.95575ZM32.4834 4.09585C33.3987 4.10477 34.2824 4.22169 35.0563 4.60349C35.5633 5.05782 35.7075 5.65557 35.6815 6.31877C35.5382 6.78764 35.2781 7.24092 34.8613 7.56649C35.3688 7.94319 35.8764 8.33349 35.954 9.00925C36.0978 9.67254 35.9006 10.2702 35.5239 10.7646C34.7313 11.6613 33.471 11.4292 32.3257 11.4673L29.3013 11.5474L29.2826 11.2723L28.9699 4.40577L28.9566 4.25615C30.0755 4.24889 31.3065 4.08437 32.4834 4.09585ZM38.2945 4.79853L40.6885 5.57067C40.1544 7.11158 39.4535 8.63185 39.0747 10.257C39.0367 10.6613 39.2754 11.0781 39.7373 11.1948C40.0569 11.3706 40.5127 11.4036 40.7526 11.1948C41.7805 9.75201 42.2671 7.95662 42.9114 6.33747C43.7305 6.62406 44.3702 7.03498 45.1637 7.33405C44.3171 9.12846 43.7963 11.2397 42.6255 12.715C41.7804 13.4564 40.4413 13.275 39.4274 13.0276C38.2697 12.6124 37.0073 11.8706 36.6567 10.5696C36.3842 9.67887 37.6193 6.62449 38.2945 4.79853ZM24.4573 5.27143C25.1947 5.25253 25.8842 5.46407 26.4611 6.05961C26.9291 6.5796 26.9936 7.30665 27.0062 7.96993C26.8904 8.39827 26.7836 8.82911 26.4985 9.18025C27.1152 9.93972 28.2629 10.8015 29.0554 11.5555L28.9566 11.5875L26.6161 12.1059C25.7835 11.4361 25.3126 10.9619 24.5882 10.4654C24.2761 10.5034 24.061 10.6878 23.768 10.8181L24.5722 12.6643L22.3759 13.8612C21.4747 11.663 20.3711 9.09407 19.5545 7.03214C20.9763 6.4601 22.8349 5.31302 24.4573 5.27143ZM47.6191 9.70926C48.9795 9.73454 50.1965 10.312 51.0123 11.3123C51.4552 11.8579 51.753 12.5338 51.9474 13.2227C51.4014 13.5163 50.9851 13.8496 50.4646 14.083C50.3358 13.2769 49.895 12.4552 49.102 12.0524C48.7247 11.831 48.1623 11.7942 47.734 11.9375C47.0702 12.184 46.5008 12.7544 46.2538 13.4177C46.0324 14.0549 46.2788 14.6791 46.6439 15.1731C47.1504 15.7456 47.8267 16.0452 48.5917 16.0708C48.2479 16.6363 48.0596 16.9932 47.734 17.4361C46.4585 17.2537 45.2638 16.5518 44.5359 15.3681C43.9116 14.3677 43.8744 12.8335 44.421 11.7799C44.9926 10.6217 46.1231 9.88122 47.3439 9.71193C47.4358 9.70867 47.5284 9.70758 47.6191 9.70926ZM15.4052 9.73331L15.627 9.86957C17.7802 11.1846 19.9923 12.7325 22.1729 13.9734L21.9485 14.123L20.2305 15.2532C19.5898 14.9156 19.2156 14.6875 18.7476 14.473L16.848 16.0734C17.0434 16.5423 17.292 17.1138 17.4999 17.6338L15.8033 19.5307L15.6671 19.2315L12.6613 12.0925L15.4052 9.73331ZM32.1307 13.3696C42.3488 13.3696 50.6329 21.6553 50.6329 31.8744C50.6329 42.0919 42.3488 50.3738 32.1307 50.3738C21.9126 50.3738 13.6285 42.0919 13.6285 31.8744C13.6285 21.6553 21.9126 13.3696 32.1307 13.3696ZM53.5078 14.0669L54.9131 15.9158C54.3155 16.5139 53.5239 17.0216 52.8852 17.5937C53.9002 17.8141 55.0424 17.7743 56.0834 17.9437C56.5518 18.621 56.7982 19.2705 57.2536 20.0891L53.433 19.8193C52.5873 21.1453 51.8187 22.4969 51.0898 23.875C50.6354 23.2118 50.2849 22.353 49.8421 21.6121C50.337 20.6101 50.9791 19.5521 51.4745 18.5502C50.6229 19.0777 49.8751 19.76 49.0085 20.3055L47.6592 18.4914C49.4797 16.9309 51.4406 15.5393 53.3528 14.123L53.5078 14.0669ZM10.4196 14.5158L11.9853 15.4349C11.6396 16.1497 11.1861 16.6384 10.8685 17.3212L15.3144 20.2468C15.0799 20.9095 14.5739 21.5609 14.1441 22.1972L9.58069 19.3491C9.17142 19.8886 8.87634 20.4418 8.46655 21.1311C7.86841 20.7349 7.4455 20.4728 6.965 20.1292C8.09716 18.2421 9.17172 16.4735 10.4196 14.5158ZM6.53751 21.6495C6.92687 21.8717 7.38247 22.2105 7.78524 22.5472C6.97823 23.1728 6.40563 24.0828 6.57492 25.1228C6.66657 25.2785 6.75664 25.5112 6.965 25.5503C7.61478 25.5503 7.83669 24.8499 8.13525 24.4201C8.4869 23.6396 9.16289 22.7949 10.0857 22.7048C10.8787 22.6532 11.5567 22.8608 12.0762 23.485C12.8691 24.4353 12.7276 25.9671 12.3514 27.0732C11.9987 27.8922 11.4535 28.7247 10.6735 29.2587L9.26809 28.401C10.0356 27.869 10.8423 26.9953 10.946 26.0205C10.946 25.6694 10.8692 25.2019 10.4383 25.1628C9.54164 25.4234 9.44907 26.5016 8.83793 27.1133C8.37001 27.5947 7.78443 27.957 7.04248 27.8533C6.35312 27.8137 5.76737 27.3846 5.36459 26.8381C4.59708 25.6683 4.97691 23.9511 5.44475 23.0548C5.73176 22.5469 6.06959 22.0407 6.53751 21.6495ZM56.5536 22.256C57.457 22.245 58.3273 22.8002 58.7365 23.5625C59.4117 24.6541 59.6738 26.0983 59.3216 27.4258L57.8788 27.3484C58.0747 26.4767 58.2174 25.3836 57.6063 24.6552C57.4244 24.4343 57.1007 24.3024 56.8662 24.4201C56.0732 25.3043 56.9305 26.5799 56.4361 27.5808C56.2011 28.0367 55.8507 28.5821 55.3433 28.7885C54.5232 29.101 53.5095 28.9456 52.8852 28.3209C51.6639 27.0465 51.0912 25.069 51.8726 23.4048H53.3929C53.1329 24.0566 52.9513 24.9805 53.1978 25.748C53.3271 26.0731 53.4849 26.4889 53.8631 26.6056C55.111 26.6507 54.2641 24.8631 54.5631 24.03C54.6803 23.4058 55.0191 22.7563 55.6559 22.4697C55.9483 22.3267 56.2525 22.2596 56.5536 22.256ZM8.52533 34.8748L9.22802 36.9454C10.0155 36.9414 10.7737 36.9698 11.5872 36.9508L9.77574 38.4657C9.95007 39.1029 10.0999 39.8339 10.3208 40.6886L8.52533 39.4409C7.77039 39.7855 7.317 40.2088 6.53751 40.6111L7.16272 38.4657C6.57005 37.9807 5.90599 37.5195 5.34589 37.0256C6.16248 37.0045 6.8782 37.0363 7.66769 37.0202C8.03242 36.3384 8.19369 35.5571 8.52533 34.8748ZM55.7975 34.8855L56.4975 36.9534C57.284 36.9504 57.9874 36.9736 58.854 36.9641L57.0452 38.4763C57.2211 39.1121 57.3704 39.8463 57.5903 40.7019L55.7975 39.4515C55.0415 39.7952 54.5875 40.219 53.807 40.6218L54.4295 38.4763C53.8379 37.9924 53.1751 37.5303 52.6181 37.0363C53.4326 37.0152 54.1482 37.0497 54.9372 37.0336C55.2558 36.3232 55.4844 35.639 55.7975 34.8855ZM14.8281 45.1451C15.1956 45.1382 15.5689 45.1765 15.9396 45.2547C16.9384 45.5282 17.877 46.2813 18.4751 47.2051C18.6319 47.5817 18.8567 47.8796 18.9534 48.4448C18.5376 48.7063 18.0127 48.9209 17.5373 49.1555C17.4216 48.2968 16.6671 47.4639 15.822 47.2425C15.1202 47.0681 14.3537 47.4016 13.8342 48.0253C13.4044 48.5313 13.2737 49.2583 13.404 49.8955C13.7427 50.7782 14.6781 51.4452 15.627 51.4452L15.8995 51.4559C15.6405 52.0811 15.4725 52.3923 15.1995 52.8612C13.625 52.8076 12.0392 51.885 11.4536 50.3631C10.9466 49.1287 11.1682 47.5304 11.9613 46.5024C12.683 45.5864 13.7257 45.1657 14.8281 45.1451ZM47.7741 45.4871C48.1517 45.7351 48.4245 46.0604 48.7867 46.3875L48.8855 46.4837L46.5451 48.6612L47.3252 49.6043C47.988 49.0843 48.703 48.5299 49.4119 47.8677C49.7761 48.1732 50.0702 48.5316 50.4138 48.9364C49.713 49.6046 48.9828 50.0593 48.3726 50.6971C48.6326 51.0232 48.8335 51.3911 49.2302 51.7818L51.7551 49.7005L52.8318 50.8146C51.4015 52.1727 49.842 53.5716 48.3592 54.6567L43.9507 48.9604C45.356 47.7892 46.5382 46.7224 47.7741 45.4871ZM20.4816 49.3425C21.9164 49.35 23.2202 50.0496 23.9764 51.1833C24.7693 52.1978 24.7807 53.772 24.2863 54.9292C23.7347 56.1065 22.6765 56.8547 21.5183 57.1147C20.1156 57.3351 18.7874 56.882 17.7724 55.907C16.8757 54.9182 16.383 53.4988 16.8373 52.1211C17.2406 50.6253 18.6967 49.5328 20.1931 49.3505C20.2898 49.3448 20.386 49.342 20.4816 49.3425ZM43.1091 49.428C43.4028 49.7705 43.5735 50.1604 43.8305 50.5742L43.8973 50.6971L41.0411 52.1291L41.5247 53.2513C42.3959 52.9186 43.1487 52.6097 44.0149 52.1719C44.2789 52.5687 44.46 52.9923 44.6775 53.4757C43.8919 53.8945 43.0783 54.2189 42.2221 54.5952C42.3814 54.9799 42.4609 55.2605 42.7404 55.8777L45.7489 54.5899L46.4729 55.9605C44.7185 56.8622 42.8283 57.7661 41.0999 58.3918L38.4655 51.6883C40.1427 50.9589 41.5772 50.2656 43.1091 49.428ZM26.2394 51.8005C27.9692 52.1742 29.7408 52.4996 31.428 52.7517C31.3339 53.2815 31.3014 53.9189 31.2143 54.5792C30.1261 54.3968 29.0876 54.2038 28.0455 54.0475C27.9874 54.5685 27.8406 54.8817 27.797 55.2765C28.7323 55.5551 29.5977 55.6509 30.5009 55.8162L30.2444 57.4887C29.3462 57.3726 28.3779 57.2159 27.4577 57.0185C27.2538 57.7439 27.0698 58.6572 26.8058 59.4472C26.0383 59.3249 25.2239 59.1514 24.484 58.8594L26.1993 51.9421L26.2394 51.8005ZM37.5144 51.9635C37.5866 52.4968 37.7477 53.1145 37.8644 53.7723C36.7703 53.9301 35.7269 54.0598 34.6849 54.2292C34.7901 54.7421 34.7426 55.0862 34.8212 55.4769C35.7971 55.4578 36.6491 55.2847 37.5598 55.167L37.827 56.8342C36.9363 56.9975 35.9644 57.1454 35.0296 57.2376C35.0557 57.9915 35.1565 58.9137 35.1445 59.7464C34.3775 59.8636 33.5495 59.9481 32.7559 59.896L32.2883 52.7837L32.2803 52.6341C34.0412 52.4648 35.8312 52.237 37.5144 51.9635Z" fill="#C0C0C0"/>
<path d="M33.0276 5.81117C33.209 6.00508 33.1714 6.40931 33.0657 6.63075C32.7285 7.02147 32.1043 7.00694 31.5838 6.94187C31.6219 6.50054 31.4591 6.07074 31.4916 5.61633C31.934 5.68088 32.7025 5.45944 33.0276 5.81117Z" fill="#C0C0C0"/>
<path d="M24.4449 7.60508C24.5737 7.93022 24.5817 8.45971 24.3046 8.65259L23.0176 9.19866C22.6965 8.60804 22.5598 8.20321 22.3389 7.72332C22.9366 7.50188 23.9631 6.60467 24.4449 7.60508Z" fill="#C0C0C0"/>
<path d="M33.4568 8.77579C33.56 9.23166 33.3531 9.69958 32.9102 9.79124C32.4945 9.85536 32.1828 9.8168 31.7404 9.82928C31.6753 9.36042 31.6373 8.73672 31.6753 8.34642C32.273 8.42457 33.1718 8.09942 33.4568 8.77579Z" fill="#C0C0C0"/>
<path d="M17.2267 13.4968C16.876 13.8225 16.4853 14.1341 16.0569 14.4326C15.7443 13.6912 15.4448 13.0279 15.1201 12.2088C15.8671 12.6061 16.5234 13.0671 17.2267 13.4968Z" fill="#C0C0C0"/>
<path d="M31.9944 14.6734C29.2036 14.6965 26.4363 15.3452 24.2088 16.6185C18.7087 19.4148 15.3942 25.0967 14.9644 30.9739L15.1193 31.2865C17.1868 32.3922 18.5267 29.9604 20.5431 30.2339C20.9975 30.4423 20.4521 30.7924 20.4656 31.0915C20.3083 31.4812 19.7609 31.2989 19.4102 31.4041C18.0311 32.0017 16.6143 33.1595 15.0018 32.5343C15.0018 32.5343 15.0133 32.6549 15.0258 32.8282H15.0231C15.0567 33.2715 15.1193 34.0572 15.1193 34.0572C16.9273 34.6304 18.0965 32.7425 19.8003 32.9644C19.7602 33.3411 19.7352 33.7445 19.5278 34.0171C17.9673 34.0962 16.9904 35.5652 15.3518 35.4625L15.6644 36.7103C17.0811 36.854 17.993 35.3967 19.4102 35.54L19.3728 36.4751C18.124 36.5919 17.318 37.7623 16.0571 37.8404C16.2254 40.727 18.2258 37.3979 19.4877 37.958C19.5393 38.2695 19.723 38.5692 19.6053 38.8958C18.5909 38.8818 17.9534 39.7675 17.0697 40.066C17.2255 40.4297 17.3301 40.9494 17.7323 41.0786C18.4873 40.7666 19.0987 40.1055 19.9954 40.1435C19.8917 39.8049 19.8008 39.3493 19.8404 39.0507C20.9711 39.3494 21.6225 38.464 22.416 37.958C22.5974 36.357 23.7145 35.1362 24.4038 33.7446C24.4774 33.4375 24.5024 33.1323 24.4973 32.8282C24.4623 31.1364 23.4438 29.5007 24.2489 27.7357C24.4964 27.0465 24.9258 26.1383 25.6542 25.943C24.3147 27.5431 24.5623 29.9867 25.2641 31.7942C25.406 32.1619 25.4567 32.5035 25.4432 32.8282C25.3831 34.2549 24.0557 35.3423 23.5462 36.6328C22.9105 37.9208 23.4929 39.3911 24.2088 40.4561C23.1818 41.2496 22.2327 42.2629 20.8931 42.2889C20.5168 42.1051 20.5033 41.5879 20.308 41.2363C19.5154 41.0795 18.8799 41.6266 18.2427 42.0164L18.9827 42.9515C19.5287 42.691 20.1545 42.1343 20.7782 42.5241C21.7019 43.6167 19.8788 43.0674 19.6453 43.7317C19.9043 44.0828 20.2179 44.3428 20.5431 44.6294C20.9198 44.5122 21.2195 44.2126 21.6759 44.2767C21.8578 44.4977 22.0653 44.7189 22.1435 44.9794L21.4408 45.4096C21.9482 45.9296 22.586 46.4245 23.1962 46.66C23.5609 45.4357 24.5357 44.488 24.9916 43.3042C25.0828 42.8489 25.1079 42.3016 25.2241 41.8989C26.5371 43.9403 23.7813 45.1503 23.7813 47.0875C24.0683 47.347 24.4189 47.4892 24.7565 47.6325C24.7044 46.1116 25.9793 45.1368 26.5119 43.8493C27.4877 41.8073 25.2373 40.5329 24.5214 38.8958C23.8451 37.4119 24.7949 36.0189 25.7317 34.9148C26.384 34.2105 26.5535 33.521 26.4958 32.8282C26.3661 31.2586 25.0721 29.6826 25.6141 27.9308C25.9268 26.8387 26.3938 25.537 27.5245 25.0827C26.7049 26.031 26.2759 27.1369 26.1993 28.3983C25.9713 30.1121 27.3448 31.3037 27.423 32.8282C27.4375 33.1323 27.4012 33.449 27.292 33.7847C26.6548 35.1633 25.212 36.2013 25.2241 37.8404C25.0548 39.9975 27.8771 40.8189 27.5646 43.0317C27.539 44.9564 25.3288 46.0201 25.8092 48.1001L27.0195 48.4928C26.3302 46.1523 28.7619 44.8495 28.7749 42.7565C28.8916 40.9871 26.9933 40.065 26.5119 38.5431C26.0054 37.0342 27.11 35.8259 27.9546 34.6797C28.37 34.033 28.4674 33.4233 28.4008 32.8282C28.2315 31.3533 27.0409 29.9726 27.097 28.3609C27.0705 26.8786 27.7198 25.4215 29.0073 24.7327C28.6187 25.2907 28.1761 25.8237 27.9546 26.4479C27.1481 28.6336 28.5017 30.5067 29.165 32.3793C29.216 32.5341 29.2518 32.6829 29.2718 32.8282C29.5213 34.5635 27.7436 35.6713 27.4069 37.2553C26.9516 39.18 29.0206 40.0637 29.4749 41.6637C30.4508 44.2763 27.2912 45.7987 28.0321 48.4127C28.0191 49.1802 28.9165 48.8821 29.3974 49.0379C28.2272 46.8798 30.1141 45.0978 30.6852 43.2267C31.323 41.2229 29.4134 40.091 28.6199 38.5431C27.7863 36.8008 29.6838 35.7211 30.1001 34.2522C30.4502 33.2503 31.35 34.1749 31.9356 34.0572C32.7291 34.202 33.4173 33.4196 34.0811 33.9797C34.4052 35.3063 35.9389 36.1251 35.9513 37.5679C35.8993 39.8031 32.6631 40.9739 33.691 43.4191C34.5361 45.1234 35.9781 47.0731 35.0162 49.0379L36.2239 48.7653C37.0304 46.749 35.5365 45.2002 34.8212 43.5741C34.1715 41.7155 35.7977 40.3245 36.7716 38.8958C37.6964 37.1655 36.214 35.7457 35.3689 34.4072C35.0773 33.8562 35.0177 33.3331 35.0884 32.8282C35.2372 31.7577 35.9699 30.7626 36.304 29.7636C37.0194 28.0609 36.6157 25.9427 35.2887 24.6552L35.3288 24.6151C35.9921 25.0058 36.5901 25.6947 36.8891 26.3705C38.0273 28.6593 36.3995 30.6865 35.9968 32.8282L35.954 33.082C35.9155 34.5919 37.1513 35.3069 37.7495 36.5152C38.7499 38.4655 36.9825 39.8444 35.9941 41.3137C34.3935 44.0575 38.2174 45.6694 37.4369 48.4127L38.6071 48.0226C38.9057 46.5518 37.7995 45.3581 37.0842 44.1619C36.0968 42.1586 37.8652 40.6117 38.8796 39.0908C39.7768 37.1922 38.217 35.592 37.3193 34.1347C37.0323 33.7154 36.9416 33.273 36.9666 32.8282H36.9693C37.0164 31.9765 37.4858 31.1132 37.8269 30.3888C38.5033 28.5674 38.0345 26.3588 36.8517 25.0052C37.6453 25.3308 38.2285 26.2162 38.4896 26.9957C39.4259 28.9334 38.2811 30.8709 37.9044 32.6919L37.9018 32.8282C37.8873 34.5745 39.5419 35.5397 40.0098 37.0977C40.4657 38.7108 39.1796 39.8289 38.4121 41.0011C36.1101 43.3947 39.6994 45.189 39.6598 47.555C39.9985 47.4123 40.4396 47.3449 40.635 47.0073C40.4657 45.6949 39.3481 44.7703 38.8796 43.5741C38.8541 43.0024 38.7235 42.2991 39.1148 41.8588L39.1922 41.9363C39.0495 43.847 40.7147 45.0052 41.2201 46.6573C41.8067 46.3042 42.4166 45.9697 42.898 45.4497C42.7167 45.2669 42.444 45.1247 42.198 45.0195C42.0658 44.7334 42.4436 44.4598 42.6255 44.1993L43.7156 44.5893C44.0407 44.2898 44.3946 44.0449 44.5759 43.6542C44.1852 43.3807 43.756 43.1836 43.2881 43.1065C43.2731 42.808 43.4422 42.5744 43.6381 42.3664C44.3029 42.341 44.8231 42.652 45.3561 42.9115C45.6411 42.6525 45.9561 42.3151 46.0588 41.9389L44.6534 41.2363C43.691 40.625 43.9511 41.9503 43.4831 42.2489C42.1702 42.1968 41.2343 41.273 40.2449 40.4534C40.3621 39.8563 40.8304 39.4022 40.9877 38.8156C41.5598 36.905 40.0379 35.463 39.1922 33.9396C38.9803 33.5669 38.9012 33.1973 38.9037 32.8282C38.9107 31.7927 39.5448 30.7607 39.5823 29.6861C39.907 28.2949 39.256 26.9576 38.722 25.8254C39.0872 26.0469 39.479 26.3438 39.6999 26.7205C40.4277 28.1512 40.6357 30.1427 39.9724 31.6766C39.8091 32.0874 39.7542 32.47 39.7747 32.8282C39.8814 34.6246 41.9002 35.8827 41.9228 37.8003C42.7019 38.3864 43.4068 39.3633 44.4584 39.0507C44.537 39.4274 44.3278 39.8282 44.3408 40.1809C45.2771 40.1288 45.9023 40.8326 46.7214 41.0786C46.9162 40.7405 47.2546 40.402 47.229 40.0233C46.3062 39.7507 45.643 38.8422 44.616 38.8156L44.8084 37.9179C45.8889 37.8918 46.6816 38.8037 47.6966 39.0507C48.0478 38.7892 48.164 38.3094 48.2817 37.8805C47.0338 37.6857 46.1364 36.6304 44.8885 36.4351C44.9136 36.125 44.8232 35.7619 44.966 35.4999C46.1493 35.4999 46.9296 36.4508 48.0092 36.7103C49.0492 37.2043 48.7099 35.9688 48.9443 35.4999C47.2922 35.5661 46.293 34.0323 44.6935 33.9797L44.4984 33.0018C46.2273 32.7173 47.3975 34.6037 49.1794 34.0973C49.3513 33.6464 49.31 33.268 49.297 32.8282L49.2943 32.5343C47.2789 33.3288 45.9534 31.3131 44.0282 31.3266C43.7797 31.0406 43.7153 30.6901 43.598 30.3514C45.7702 29.6506 47.2013 32.781 49.3344 31.169C49.1666 28.5285 48.6048 26.0479 47.384 23.8376C46.108 21.3143 43.7564 18.829 41.2976 17.3211C38.7659 15.5289 35.3627 14.6455 31.9944 14.6734ZM32.1307 15.7608C32.5599 16.3459 32.7026 17.1124 33.0658 17.7486L35.1738 17.8662L35.1338 18.0612L33.5734 19.5441C33.8455 20.2079 34.1202 20.8727 34.3937 21.5345C35.577 20.8467 36.7093 19.9862 38.1395 19.8941C38.0093 20.6495 37.4372 21.4442 37.5143 22.1971C38.3991 21.9501 39.2051 21.4033 40.1674 21.4544C39.5683 22.5605 38.6967 23.6676 38.6445 25.0453C37.331 24.5523 35.98 23.9535 34.5112 23.7201C31.3772 23.186 28.3581 23.8733 25.7691 25.1227C25.5487 23.8093 24.9118 22.6667 24.1313 21.5746C24.5992 21.4183 25.1718 21.6753 25.6542 21.8071C26.0575 21.9228 26.3952 22.1981 26.8245 22.2773C26.9011 21.4968 26.4464 20.7271 26.1218 20.0116C26.3427 19.8423 26.695 19.972 26.942 20.0517C27.9685 20.441 28.8912 21.0514 29.8276 21.612C30.3085 21.0514 30.4899 20.2454 30.6852 19.504L29.0875 18.0612V17.9063L31.1929 17.7887C31.5436 17.1259 31.7795 16.4241 32.1307 15.7608ZM18.5125 22.8197C18.6334 22.8273 18.7678 22.9288 18.8652 22.9773C19.8676 23.7578 20.3484 24.8367 20.4656 26.0205C21.7265 25.5385 23.4413 24.7057 24.7939 25.5903C24.5069 25.9931 23.9509 26.2154 23.5462 26.5655C22.8839 27.2157 22.0767 28.0094 21.5958 28.8285C19.9701 28.5028 18.67 29.4528 17.3049 29.9987C16.7849 30.1019 16.0958 30.1543 15.667 29.8037C16.9545 27.6831 18.7719 25.7325 18.3175 22.9372C18.3712 22.8444 18.44 22.8151 18.5125 22.8197ZM45.9038 22.8597C46.0721 22.8853 46.1889 23.069 46.1362 23.2498C45.6303 25.9024 47.4494 27.7753 48.6718 29.8037C47.2681 30.7405 45.9389 29.2968 44.6133 28.9461C44.0282 28.8554 43.3411 28.7774 42.7805 28.8686C41.9759 27.6212 40.8958 26.4498 39.5823 25.7479C39.6594 25.3196 40.2578 25.2924 40.6751 25.2403C41.8323 25.1245 42.846 25.6035 43.7957 26.0979C43.9776 25.6696 44.0539 25.1871 44.1832 24.7327C44.4968 23.9652 45.1107 23.1839 45.9038 22.8597ZM31.9891 24.2624C32.0601 24.261 32.1314 24.2618 32.2028 24.2624C32.5835 24.266 32.968 24.2972 33.3383 24.3426C34.0934 24.5374 34.9255 24.864 35.2887 25.6705C35.3288 25.8914 35.5496 26.0861 35.4063 26.3331C34.6388 26.0981 33.7677 26.229 33.0257 26.5281C32.3619 27.022 32.4663 28.0366 32.6356 28.751L32.8334 28.9087C33.158 28.83 33.1708 28.413 33.4559 28.3209C33.9378 28.4386 34.6014 28.6084 35.0563 28.3209C35.4591 28.3344 35.4456 28.8941 35.4838 29.1812C35.1982 30.6896 34.5628 32.3271 33.0284 33.0419C32.3907 33.3545 31.5689 33.1448 30.9577 32.9243C29.4498 32.0271 28.6056 30.2483 28.7749 28.6361C28.8921 28.3891 29.0735 28.1916 29.36 28.3609C29.9697 28.7767 30.6329 28.0374 31.1929 28.556C31.8686 28.2569 31.4654 27.4254 31.4654 26.8006C30.9193 26.0978 29.984 26.2003 29.165 26.2529C28.8002 26.031 29.1929 25.6829 29.2825 25.4353C29.9046 24.5579 30.9231 24.2841 31.9891 24.2624ZM29.515 26.9102C30.0215 26.8916 30.5201 27.0826 30.7627 27.4632V27.6209C30.3209 27.5813 29.6062 27.1393 29.2024 27.6983C28.9429 27.8145 28.9039 27.5139 28.9299 27.3457C28.8778 27.1508 28.9957 26.9959 29.165 26.9583C29.2794 26.9314 29.3981 26.9145 29.515 26.9102ZM34.5059 26.9529C34.8685 26.9455 35.2476 26.9731 35.4063 27.2682C35.3942 27.4255 35.4337 27.6072 35.2513 27.6983C34.7569 27.5035 34.0679 27.2295 33.5734 27.6209C33.2869 27.0092 34.081 27.1396 34.3536 26.9583C34.4041 26.9564 34.4541 26.954 34.5059 26.9529ZM32.2028 29.5018C31.9249 29.5017 31.6364 29.583 31.428 29.7262C31.4536 29.8304 31.3637 29.9862 31.5055 30.0388C31.9218 29.9486 32.6752 30.2602 32.9082 29.7663C32.7458 29.5845 32.4807 29.5019 32.2028 29.5018ZM30.7253 30.7789L30.7627 31.014C31.2707 31.3522 31.4273 31.926 32.1307 31.8743C32.7544 31.9114 33.2228 31.327 33.5334 30.8591C32.6892 30.7423 31.6621 30.9227 30.7253 30.7789Z" fill="#C0C0C0"/>
<path d="M22.3385 52.1212C22.7788 53.1482 22.2724 54.1621 21.557 54.89C21.1026 55.2543 20.507 55.4832 19.9094 55.2623C19.5332 55.0799 19.0677 54.7474 18.9635 54.3436C18.6769 53.3036 19.1524 52.3287 19.8798 51.6133C20.3221 51.2486 20.9594 51.0412 21.5174 51.3012C21.856 51.4043 22.2333 51.7826 22.3385 52.1212Z" fill="#C0C0C0"/>
<path d="M53.3107 58.8918C54.3272 58.8918 55.1989 59.6823 55.1989 60.7548C55.1989 61.8374 54.3281 62.6269 53.3107 62.6269C52.2837 62.6269 51.4126 61.8374 51.4126 60.7548C51.4126 59.6823 52.2838 58.8918 53.3107 58.8918ZM53.3107 59.1939C52.4446 59.1939 51.7753 59.8637 51.7753 60.7549C51.7753 61.6656 52.4451 62.3254 53.3107 62.3254C54.1669 62.3254 54.8362 61.6666 54.8362 60.7549C54.8357 59.8637 54.1669 59.1939 53.3107 59.1939ZM52.9125 61.8375H52.5808V59.6823H53.4059C53.9194 59.6823 54.1713 59.8737 54.1713 60.296C54.1713 60.6843 53.9294 60.8501 53.6072 60.8902L54.2214 61.837H53.8593L53.2852 60.9007H52.912V61.8375H52.9125ZM52.9125 60.6291H53.3058C53.7085 60.6291 53.8393 60.5129 53.8393 60.276C53.8393 60.0701 53.7386 59.9538 53.3608 59.9538H52.9125V60.6291Z" fill="#C0C0C0"/>
</g>
<defs>
<clipPath id="clip0_1_250">
<rect width="64" height="64" fill="white" transform="translate(0.200195)"/>
</clipPath>
</defs>
</svg>
