<svg width="28" height="64" viewBox="0 0 28 64" fill="none" xmlns="http://www.w3.org/2000/svg">
<rect width="27.2" height="64" rx="6" fill="white"/>
<path fill-rule="evenodd" clip-rule="evenodd" d="M23.1233 63.8891C23.4698 63.235 24.0852 61.1182 22.931 58.886C23.2776 57.6545 22.3536 57.3846 21.9691 54.6527C22.354 53.8443 22.6232 52.882 22.5849 51.8045C22.5079 50.8425 21.8152 50.3807 21.4303 49.6497C20.8146 47.1863 20.4684 44.5696 19.5444 42.2606C19.2369 41.144 18.4672 40.182 17.9281 39.1431C17.3893 36.3722 17.1201 33.409 16.2734 30.792C16.433 30.6707 16.5754 30.5282 16.6966 30.3685C16.1192 28.0211 15.2725 24.5958 14.041 23.5565C14.3485 22.402 14.8107 21.0552 14.9646 20.0159C15.5031 19.2849 16.1188 18.4765 17.312 17.9377C17.9278 19.6311 18.1973 21.7479 18.5435 23.4409C19.3132 25.1343 20.3907 26.635 20.6986 28.1747C18.7361 28.9444 17.389 30.7534 17.389 32.8695C17.389 35.6021 19.5827 37.7956 22.2763 37.7956C24.2778 37.7956 26.0094 36.5254 26.7791 34.7938V59.3472C26.7795 61.541 25.2401 63.3886 23.1233 63.8891Z" fill="#BFBFBF"/>
<path fill-rule="evenodd" clip-rule="evenodd" d="M20.8198 63.9617C20.0501 62.1144 20.5119 60.575 20.6658 58.4582C20.4736 57.4962 20.3193 56.5339 20.1654 55.6107C19.0881 53.9556 18.7033 52.4549 18.4337 50.6846C16.3942 48.876 14.0078 47.2979 12.3918 45.3354C9.50524 42.6028 7.38875 39.7932 5.92633 36.6375C5.4262 36.5995 4.92606 36.5605 4.38693 36.5605C3.4633 34.0592 1.34681 31.0187 1.53906 29.0562C1.61603 27.3242 2.15481 25.7465 2.80889 23.9762C2.23144 23.8606 1.693 24.0532 1.07724 23.7066C0.115292 23.0909 0.26923 22.0133 0.230575 21.051C0.653737 19.1268 1.693 17.5104 2.38572 15.7788C3.07845 14.2777 3.73286 12.7769 4.38693 11.3145C5.31057 10.2753 5.88801 9.54423 7.04222 9.04375C8.04282 8.92813 9.04377 9.08207 10.121 8.8515C10.5828 8.69756 11.1603 8.58194 11.3529 8.27406C11.8147 7.61965 11.6991 6.92692 11.8916 6.11891C11.2759 5.77272 11.3529 4.00242 12.0456 3.38667C12.0456 2.15515 12.5457 0.500138 13.585 0.0769767L4.6565 7.26518e-06C4.04467 -0.00107443 3.43864 0.118642 2.87318 0.352291C2.30772 0.585939 1.79394 0.928922 1.36133 1.36157C0.928715 1.79422 0.585769 2.30801 0.352162 2.87349C0.118554 3.43897 -0.00111876 4.045 7.88144e-06 4.65683V59.3432C-0.00111876 59.955 0.118554 60.561 0.352162 61.1265C0.585769 61.692 0.928715 62.2058 1.36133 62.6384C1.79394 63.0711 2.30772 63.4141 2.87318 63.6477C3.43864 63.8814 4.04467 64.0011 4.6565 64L20.8198 63.9617ZM2.96248 52.5705H5.00235L6.50309 57.3806V52.5705H8.35036V60.6137H6.27218L4.73278 55.8032V60.6137H2.96248V52.5705ZM8.65824 52.5705H11.0443C14.1614 52.5705 13.3534 56.3413 12.1988 56.4183C13.9305 56.2264 14.1614 60.6137 11.3522 60.6137H8.65824V52.5705ZM10.5055 53.8787V55.6873H10.9677C11.7374 55.6873 11.7374 53.8787 10.9677 53.8787H10.5055ZM10.5055 57.0731V59.3052H10.9677C11.8526 59.3052 11.7374 57.0731 10.9677 57.0731H10.5055ZM14.8928 52.5705H17.3558L18.7796 60.6137H16.894L16.7397 59.1899H15.4316L15.2003 60.6137H13.3534L14.8928 52.5705ZM15.6242 57.7658H16.5861L16.0856 53.763L15.6242 57.7658Z" fill="#C0C0C0"/>
<path fill-rule="evenodd" clip-rule="evenodd" d="M16.7625 0.200904C18.071 1.43242 18.8793 3.20273 17.6478 5.35789C18.4175 5.85802 17.0704 6.74334 16.7625 7.43607C16.378 8.51365 15.0695 9.12941 15.2235 9.51426C16.9164 10.5535 18.2636 11.5924 19.9569 12.9392C20.8422 14.0555 21.1884 18.5194 21.6885 21.9061C22.4199 24.0229 23.4588 25.8315 23.8437 28.2176C25.1908 28.7177 26.2297 29.757 26.7685 30.9885V4.66481C26.7696 4.053 26.65 3.44698 26.4163 2.88151C26.1827 2.31605 25.8398 1.80228 25.4072 1.36966C24.9746 0.937034 24.4608 0.594081 23.8953 0.360469C23.3299 0.126857 22.7238 0.00718188 22.112 0.00830866L16.7625 0.200904Z" fill="#BFBFBF"/>
</svg>
