<svg width="162" height="36" viewBox="0 0 162 36" fill="none" xmlns="http://www.w3.org/2000/svg">
<path d="M53.2 23H55V17.6C55 16.4 55.8 15.6 56.7 15.6C57.6 15.6 58.4 16.4 58.4 17.6V23H60.2V17.6C60.2 16.4 61 15.6 61.9 15.6C62.8 15.6 63.6 16.4 63.6 17.6V23H65.4V17.6C65.4 15.28 63.98 13.9 62.3 13.9C61.4 13.9 60.74 14.26 60.28 14.6C60.02 14.82 59.78 15.04 59.6 15.3C59.42 15.04 59.22 14.82 58.98 14.6C58.56 14.26 57.96 13.9 57.1 13.9C56.4 13.9 55.86 14.16 55.48 14.4C55.26 14.54 55.06 14.72 54.9 14.9L54.5 14H53.2V23ZM71.4922 21.4C70.1922 21.4 68.9922 20.2 68.9922 18.5C68.9922 16.8 70.1922 15.6 71.4922 15.6C72.7922 15.6 73.9922 16.8 73.9922 18.5C73.9922 20.2 72.7922 21.4 71.4922 21.4ZM71.4922 23.1C73.8922 23.1 75.7922 21.2 75.7922 18.5C75.7922 15.8 73.8922 13.9 71.4922 13.9C69.0922 13.9 67.1922 15.8 67.1922 18.5C67.1922 21.2 69.0922 23.1 71.4922 23.1ZM78.4922 20C78.4922 21.9 79.6922 23.1 81.2922 23.1C81.5722 23.1 81.8122 23.06 82.0122 23C82.1122 22.98 82.2122 22.94 82.2922 22.9V21.3L82.1122 21.36C81.9722 21.38 81.8322 21.4 81.6922 21.4C80.8922 21.4 80.2922 20.8 80.2922 20V15.7H82.2922V14H80.2922V11.6H78.7922V12.8C78.7922 13.5 78.2922 14 77.5922 14H76.8922V15.7H78.4922V20ZM84.3914 23H86.1914V14H84.3914V23ZM85.2914 10.4C84.6714 10.4 84.1914 10.88 84.1914 11.5C84.1914 12.12 84.6714 12.6 85.2914 12.6C85.9114 12.6 86.3914 12.12 86.3914 11.5C86.3914 10.88 85.9114 10.4 85.2914 10.4ZM92.3906 21.4C91.0906 21.4 89.8906 20.2 89.8906 18.5C89.8906 16.8 91.0906 15.6 92.3906 15.6C93.6906 15.6 94.8906 16.8 94.8906 18.5C94.8906 20.2 93.6906 21.4 92.3906 21.4ZM92.3906 23.1C94.7906 23.1 96.6906 21.2 96.6906 18.5C96.6906 15.8 94.7906 13.9 92.3906 13.9C89.9906 13.9 88.0906 15.8 88.0906 18.5C88.0906 21.2 89.9906 23.1 92.3906 23.1ZM98.5906 23H100.391V17.8C100.391 16.62 101.371 15.6 102.591 15.6C103.711 15.6 104.691 16.62 104.691 17.8V23H106.491V17.8C106.491 15.5 104.891 13.9 102.891 13.9C101.991 13.9 101.331 14.16 100.911 14.4C100.671 14.54 100.471 14.72 100.291 14.9L99.8906 14H98.5906V23ZM108.286 20.1C108.386 22.02 109.466 23.1 111.686 23.1C113.786 23.1 114.986 21.9 114.986 20.3C114.986 17.12 110.186 18.2 110.186 16.6C110.186 16.1 110.686 15.6 111.586 15.6C112.486 15.6 112.986 16.08 113.086 16.7H114.886C114.786 15 113.686 13.9 111.586 13.9C109.686 13.9 108.486 15.1 108.486 16.6C108.486 19.78 113.286 18.7 113.286 20.3C113.286 20.92 112.806 21.4 111.686 21.4C110.666 21.4 110.186 20.9 110.086 20.1H108.286ZM117.691 20C117.691 21.9 118.891 23.1 120.491 23.1C120.771 23.1 121.011 23.06 121.211 23C121.311 22.98 121.411 22.94 121.491 22.9V21.3L121.311 21.36C121.171 21.38 121.031 21.4 120.891 21.4C120.091 21.4 119.491 20.8 119.491 20V15.7H121.491V14H119.491V11.6H117.991V12.8C117.991 13.5 117.491 14 116.791 14H116.091V15.7H117.691V20ZM129.095 23H130.395V17.1C130.395 15.3 128.995 13.9 126.895 13.9C124.675 13.9 123.395 15.1 123.295 16.7H125.095C125.195 16.08 125.695 15.6 126.895 15.6C128.015 15.6 128.595 16.2 128.595 17.1V17.4C124.195 17.4 122.995 18.6 122.995 20.4C122.995 22 124.095 23.1 126.095 23.1C126.995 23.1 127.655 22.86 128.075 22.6C128.315 22.46 128.515 22.28 128.695 22.1L129.095 23ZM128.595 19.48C128.595 20.6 127.715 21.5 126.195 21.5C125.295 21.5 124.795 21 124.795 20.5C124.795 19.6 125.395 19 128.595 19V19.48ZM138.592 19.7C138.292 20.72 137.612 21.4 136.492 21.4C135.192 21.4 133.992 20.2 133.992 18.5C133.992 16.8 135.192 15.6 136.492 15.6C137.612 15.6 138.292 16.28 138.592 17.3H140.492C140.072 15.38 138.612 13.9 136.492 13.9C134.092 13.9 132.192 15.8 132.192 18.5C132.192 21.2 134.092 23.1 136.492 23.1C138.612 23.1 140.072 21.62 140.492 19.7H138.592ZM142.402 23H144.202V18.7L147.702 23H149.902L145.902 18.2L149.402 14H147.302L144.202 17.9V10.4H142.402V23ZM150.2 20.1C150.3 22.02 151.38 23.1 153.6 23.1C155.7 23.1 156.9 21.9 156.9 20.3C156.9 17.12 152.1 18.2 152.1 16.6C152.1 16.1 152.6 15.6 153.5 15.6C154.4 15.6 154.9 16.08 155 16.7H156.8C156.7 15 155.6 13.9 153.5 13.9C151.6 13.9 150.4 15.1 150.4 16.6C150.4 19.78 155.2 18.7 155.2 20.3C155.2 20.92 154.72 21.4 153.6 21.4C152.58 21.4 152.1 20.9 152 20.1H150.2ZM158.205 22C158.205 22.62 158.685 23.1 159.305 23.1C159.925 23.1 160.405 22.62 160.405 22C160.405 21.38 159.925 20.9 159.305 20.9C158.685 20.9 158.205 21.38 158.205 22Z" fill="black"/>
<g clip-path="url(#clip0_1_299)">
<path d="M14.8687 16.7691C14.0212 16.224 13.3156 15.4866 12.8098 14.6176C12.3041 13.7485 12.0125 12.7725 11.959 11.7695L12.0026 0L31.0976 10.973C32.7052 11.8962 34.0073 14.1335 34.0073 15.9726L33.971 27.7422L14.8687 16.7691Z" fill="#FF360C"/>
<path d="M8.88139 20.8962C7.27741 19.973 5.97168 17.7393 5.97168 15.9002L6.00441 4.12708L25.0994 15.1001C26.7034 16.0233 28.0091 18.2606 28.0091 20.0997L27.98 31.8584L8.88139 20.8962Z" fill="#FFAF15"/>
<path d="M2.90971 25.0233C2.06251 24.4787 1.35707 23.742 0.851278 22.8735C0.345487 22.0051 0.0537495 21.0297 0 20.0273L0.0327343 8.25415L19.1277 19.2272C20.7353 20.1504 22.0374 22.3877 22.0374 24.2268L22.0047 35.9999L2.90971 25.0233Z" fill="#158FFF"/>
<path fill-rule="evenodd" clip-rule="evenodd" d="M12.8098 14.6176C13.3156 15.4867 14.0212 16.224 14.8687 16.7691L27.9993 24.3118L28.0097 20.0998C28.0097 18.2607 26.704 16.0234 25.1 15.1002L11.9746 7.55762L11.959 11.7695C12.0125 12.7725 12.3041 13.7485 12.8098 14.6176Z" fill="#FF810C"/>
<path fill-rule="evenodd" clip-rule="evenodd" d="M5.97168 15.9002C5.97168 17.7393 7.27741 19.973 8.88139 20.8962L22.0253 28.4405L22.037 24.2269C22.037 22.3878 20.7349 20.1504 19.1273 19.2273L5.98343 11.6741L5.97168 15.9002Z" fill="#15ABFF"/>
</g>
<defs>
<clipPath id="clip0_1_299">
<rect width="34" height="36" fill="white"/>
</clipPath>
</defs>
</svg>
