<svg width="127" height="32" viewBox="0 0 127 32" fill="none" xmlns="http://www.w3.org/2000/svg">
<g clip-path="url(#clip0_1_248)">
<path d="M41.381 0.0813106C36.694 0.075004 33.5899 2.61235 33.1532 6.40633C33.0513 7.28317 32.9464 8.15963 32.8385 9.0357H93.8225C93.8225 9.0357 93.9371 8.11144 94.0263 7.3696C94.4848 3.54759 92.9036 0.0817777 87.1522 0.0817777V0.0822449C87.1522 0.0822449 43.8519 0.0841135 41.381 0.0813106ZM4.16324 0.0824784L3.09292 9.0357H30.7492L31.8155 0.082712H4.16278H4.16324V0.0824784ZM96.9993 0.0824784L95.9313 9.0357H125.913C125.913 9.0357 125.949 8.71197 126.082 7.65807C126.812 1.78128 123.12 0.0824784 119.556 0.0824784H96.9993ZM95.5182 12.4448L93.182 31.9848L103.526 31.9811L105.864 12.4485L95.5182 12.4443V12.4448ZM115.169 12.4448L112.829 31.9848L123.173 31.9811L125.511 12.4485L115.169 12.4443V12.4448ZM2.68945 12.4476L0.349121 31.9858H28.0036L29.0225 23.5097L11.706 23.5079L12.144 19.8529H29.4538L30.3399 12.448H2.69081L2.68945 12.4476ZM32.4327 12.4476C31.674 17.547 34.1594 19.8522 37.682 19.8522C39.5979 19.8522 51.6739 19.8466 51.6739 19.8466L51.2372 23.5072L31.1118 23.509L30.0983 31.9851C30.0983 31.9851 52.0087 31.9926 52.8966 31.9851C53.6298 31.9309 58.7554 31.787 60.5003 27.4817C61.0661 26.084 61.5665 21.0724 61.7066 20.0203C62.5126 13.91 58.3933 12.4532 55.1491 12.4532C53.3606 12.4532 35.9644 12.4476 32.4327 12.4476ZM64.6269 12.4476L62.2906 31.9858H72.629L74.0846 19.8529H87.0703C90.753 19.8529 92.7326 17.8194 93.1001 15.0886C93.2176 14.2099 93.3238 13.3296 93.4186 12.448H64.6269V12.4476Z" fill="#C0C0C0"/>
</g>
<defs>
<clipPath id="clip0_1_248">
<rect width="126" height="32" fill="white" transform="translate(0.200195)"/>
</clipPath>
</defs>
</svg>
