<svg width="168" height="29" viewBox="0 0 168 29" fill="none" xmlns="http://www.w3.org/2000/svg">
<g clip-path="url(#clip0_1_206)">
<path d="M0.200195 28.459V0H13.0584C18.5383 0 21.3565 3.45836 21.3565 7.24517C21.3565 10.7808 19.1059 13.2152 16.3855 13.7755C19.4973 14.2392 21.9241 17.1952 21.9241 20.7308C21.9241 25.0393 19.0667 28.459 13.5477 28.459H0.200195ZM15.0938 8.32712C15.0938 6.56895 13.8021 5.33245 11.7276 5.33245H6.34551V11.3025H11.7276C13.8021 11.3025 15.0938 10.1626 15.0938 8.32712ZM15.6613 19.8807C15.6613 18.0839 14.3697 16.6349 11.982 16.6349H6.34551V23.1266H12.0016C14.2718 23.1266 15.6613 21.9287 15.6613 19.8807Z" fill="#C0C0C0"/>
<path d="M23.6074 20.2092V7.84412H29.1265V20.0353C29.1265 22.489 30.6334 24.2665 33.5691 24.2665C36.4656 24.2665 37.9922 22.489 37.9922 20.0353V7.84412H43.4916V20.1899C43.4916 25.3678 40.3407 29 33.5887 29C26.8366 29 23.6074 25.3291 23.6074 20.2092Z" fill="#C0C0C0"/>
<path d="M45.3115 28.459V24.4017L54.7252 12.5776H45.3115V7.84412H62.2014V11.7275L52.6115 23.7255H62.3775V28.459H45.3115Z" fill="#C0C0C0"/>
<path d="M64.1782 28.459V24.4017L73.5919 12.5776H64.1782V7.84412H81.0681V11.7275L71.4782 23.7255H81.2442V28.459H64.1782Z" fill="#C0C0C0"/>
<path d="M83.2988 28.459V0H103.3V5.33245H89.4441V11.3025H99.8755V16.6349H89.4441V28.459H83.2988Z" fill="#C0C0C0"/>
<path d="M101.422 18.1419C101.422 12.1719 105.923 7.34177 112.225 7.34177C118.488 7.34177 122.676 11.9594 122.676 18.6442V19.9194H107.156C107.548 22.431 109.622 24.537 113.165 24.537C114.945 24.537 117.353 23.8028 118.703 22.5276L121.169 26.1213C119.095 27.9953 115.807 28.9807 112.577 28.9807C106.217 28.9807 101.422 24.7495 101.422 18.1419ZM112.225 11.7855C108.82 11.7855 107.332 14.1232 107.117 16.1712H117.411C117.235 14.2005 115.846 11.7855 112.225 11.7855Z" fill="#C0C0C0"/>
<path d="M124.164 18.1419C124.164 12.1719 128.665 7.34177 134.967 7.34177C141.23 7.34177 145.418 11.9594 145.418 18.6442V19.9194H129.898C130.289 22.431 132.364 24.537 135.906 24.537C137.687 24.537 140.094 23.8028 141.445 22.5276L143.911 26.1213C141.836 27.9953 138.548 28.9807 135.319 28.9807C128.958 28.9807 124.164 24.7495 124.164 18.1419ZM134.967 11.7855C131.561 11.7855 130.074 14.1232 129.859 16.1712H140.153C139.977 14.2005 138.587 11.7855 134.967 11.7855Z" fill="#C0C0C0"/>
<path d="M147.434 28.4976V7.80545H155.849C162.445 7.80545 167.2 11.7082 167.2 18.1419C167.2 24.5563 162.464 28.4976 155.888 28.4976H147.434ZM161.857 18.1419C161.857 14.9347 159.9 12.2685 156.064 12.2685H152.659V24.0346H156.064C159.724 24.0346 161.857 21.2138 161.857 18.1419Z" fill="#C0C0C0"/>
</g>
<defs>
<clipPath id="clip0_1_206">
<rect width="167" height="29" fill="white" transform="translate(0.200195)"/>
</clipPath>
</defs>
</svg>
