<svg width="169" height="41" viewBox="0 0 169 41" fill="none" xmlns="http://www.w3.org/2000/svg">
<path d="M18.784 26.9312C18.0135 27.622 16.9011 27.8521 16.2045 27.9402C14.7851 28.1154 13.3172 27.6498 12.3805 26.5341C11.6113 25.6226 11.2167 24.4422 10.4657 23.4985C9.27943 22.0047 7.38313 21.0264 5.42973 21.3721C1.56836 22.0644 -0.183549 26.514 1.99946 29.6007C5.1197 34.012 12.1366 33.2482 15.7379 30.1922C16.8593 29.242 17.9062 28.1846 18.784 26.9312Z" fill="#C0C0C0"/>
<path d="M149.618 26.9303C150.39 27.6226 151.498 27.8527 152.198 27.9396C153.616 28.116 155.085 27.6509 156.021 26.5344C156.79 25.6217 157.187 24.4425 157.936 23.4988C159.124 22.0044 161.02 21.0261 162.973 21.3724C166.833 22.0638 168.585 26.514 166.4 29.601C163.281 34.0113 156.265 33.2485 152.666 30.1928C151.544 29.2423 150.495 28.1842 149.618 26.9303Z" fill="#C0C0C0"/>
<path d="M136.76 3.40389C136.663 3.40054 127.447 3.40054 127.362 3.40359C126.352 3.43374 125.517 4.35822 125.469 5.30902C125.418 6.3192 126.306 7.32112 127.362 7.37135C127.459 7.3747 136.675 7.3747 136.76 7.37135C137.77 7.34095 138.606 6.417 138.653 5.46591C138.705 4.45484 137.816 3.45471 136.76 3.40389Z" fill="#C0C0C0"/>
<path d="M78.0663 23.1966C77.9375 22.6695 77.869 22.151 77.8323 21.6277C77.826 20.8725 77.826 19.8124 77.826 18.8368C77.9223 15.467 78.5587 9.53917 73.9341 9.53917C70.8109 9.53917 68.9603 12.1366 68.436 12.9857C68.3612 10.6179 66.4712 8.90009 63.5838 8.90009C61.7417 8.90009 60.6475 10.349 60.6475 10.349C60.6475 10.349 62.4445 10.9648 62.4445 13.3509C62.4639 15.0599 62.4418 23.3789 62.4445 23.4141C62.5154 24.8884 63.5575 26.2706 65.4219 26.2706C67.2862 26.2706 68.4431 24.8544 68.4431 23.4114V16.0331C68.7029 14.8271 69.3896 13.5962 70.4249 13.5962C71.7679 13.5962 71.8432 15.072 71.8495 15.072L71.8432 22.2142C71.8495 22.4467 71.8794 22.6695 71.9203 22.8881C71.9867 23.2604 72.1006 23.6067 72.2641 23.9246C72.9805 25.3632 74.5652 26.301 76.6947 26.301C78.5357 26.301 79.6302 24.8533 79.6302 24.8533C79.6302 24.8533 78.5498 24.4768 78.0664 23.1966" fill="#C0C0C0"/>
<path d="M122.521 23.1966C122.39 22.6695 122.321 22.1509 122.286 21.6277L122.292 3.9505C122.292 2.23121 120.882 0.837524 119.142 0.837524C117.402 0.837524 115.992 2.23121 115.992 3.9505L115.996 19.6058C116.012 21.0161 115.872 22.457 116.545 23.7526C117.259 25.1918 119.019 26.301 121.146 26.301C122.992 26.301 124.084 24.8532 124.084 24.8532C124.084 24.8532 123.006 24.4768 122.521 23.1966" fill="#C0C0C0"/>
<path d="M52.1345 9.38492C47.4073 9.38492 43.5762 13.171 43.5762 17.8434C43.5762 22.5149 47.4073 26.301 52.1345 26.301C56.8607 26.301 60.6934 22.5149 60.6934 17.8434C60.6934 13.171 56.8607 9.38492 52.1345 9.38492ZM52.1973 22.7085V22.7126C52.1905 22.7126 52.1847 22.7101 52.1785 22.7101C52.1717 22.7101 52.1662 22.7126 52.1608 22.7126V22.7085C50.545 22.6795 49.7348 20.8444 49.7348 17.8434C49.7348 14.8468 50.7611 13.0093 52.1608 12.9765V12.976C52.1659 12.976 52.1719 12.976 52.1785 12.9765C52.1844 12.976 52.1902 12.976 52.1973 12.976V12.9765C53.5952 13.0094 54.6228 14.8468 54.6228 17.8434C54.6228 20.8444 53.8141 22.6795 52.1973 22.7085Z" fill="#C0C0C0"/>
<path d="M97.3165 23.1966C97.1859 22.6695 97.1165 22.1509 97.0821 21.6277L97.0863 3.9505C97.0863 2.23121 95.6764 0.837524 93.9364 0.837524C92.1968 0.837524 90.7866 2.23121 90.7866 3.9505L90.774 12.3233C90.0165 11.2809 88.3477 9.51907 85.7183 9.51907C78.4844 9.51907 78.0273 22.2499 82.9879 25.3992C84.3864 26.2859 86.4956 26.514 88.0915 26.1042C89.1934 25.8203 90.9307 24.7504 91.2099 23.4728C91.2497 23.5665 91.2921 23.6599 91.3406 23.7526C92.0545 25.1918 93.8144 26.301 95.9418 26.301C97.7876 26.301 98.8803 24.8532 98.8803 24.8532C98.8803 24.8532 97.8023 24.4768 97.3165 23.1966H97.3165ZM87.9291 22.1675V22.17C87.9225 22.17 87.9175 22.1694 87.9118 22.1694C87.9043 22.1694 87.9007 22.17 87.8924 22.17V22.1675C86.2762 22.1439 85.4675 20.5424 85.4675 17.9294C85.4675 15.3184 86.4926 13.7191 87.8924 13.6898V13.6873C87.9007 13.6873 87.9043 13.6898 87.9118 13.6898C87.9175 13.6898 87.9225 13.6873 87.9291 13.6873V13.6898C89.3303 13.719 90.3558 15.3184 90.3558 17.9294C90.3558 20.5424 89.5453 22.1439 87.9291 22.1675Z" fill="#C0C0C0"/>
<path d="M113.705 21.0675C113.705 21.0675 112.781 22.3185 109.197 22.3185C105.614 22.3185 104.845 19.5651 104.845 19.5651C110.067 19.5651 114.448 19.2194 114.448 15.0401C114.448 10.8617 109.669 9.48334 106.835 9.48334C102.156 9.48334 98.7378 13.1713 98.7378 18.039C98.7378 23.5213 103.189 26.301 106.885 26.301C113.393 26.301 113.705 21.0675 113.705 21.0675ZM104.506 16.8837C104.689 15.5497 105.013 13.8686 106.227 13.09C107.235 12.4427 108.647 13.1795 108.669 14.4258C108.692 15.7421 107.83 16.6385 106.632 16.8879C106.504 16.9148 104.488 17.0143 104.506 16.8837" fill="#C0C0C0"/>
<path d="M138.904 21.0675C138.904 21.0675 137.98 22.3185 134.397 22.3185C130.813 22.3185 130.044 19.5651 130.044 19.5651C135.266 19.5651 139.647 19.2194 139.647 15.0401C139.647 10.8617 134.868 9.48334 132.035 9.48334C127.356 9.48334 123.937 13.1713 123.937 18.039C123.937 23.5213 128.389 26.301 132.084 26.301C138.592 26.301 138.904 21.0675 138.904 21.0675ZM129.705 16.8837C129.888 15.5497 130.212 13.8686 131.426 13.09C132.434 12.4427 133.846 13.1795 133.868 14.4258C133.891 15.7421 133.03 16.6385 131.831 16.8879C131.703 16.9148 129.687 17.0143 129.705 16.8837" fill="#C0C0C0"/>
<path d="M150.723 21.5198H147.134C147.397 21.5198 150.053 19.3074 150.933 18.5699C153.239 16.6361 157.385 13.8461 156.176 10.232L156.179 10.2574C155.957 9.39669 155.287 8.90002 155.287 8.90002C155.287 8.90002 155.036 9.60263 154.184 9.91701C153.835 10.0003 153.487 10.0633 153.14 10.0837C152.853 10.0887 143.108 10.0837 143.108 10.0837C141.79 10.082 140.686 11.1296 140.667 12.3652C140.652 13.6115 141.695 14.611 143.03 14.6287L148.715 14.6645C146.08 16.117 142.933 17.8372 141.335 20.4635C140.423 21.971 139.446 24.2951 139.817 26.0779C141.08 24.9714 144.395 23.9003 146.918 24.4209C147.863 24.6159 148.867 25.0925 149.684 25.5972C154.416 28.5225 157.26 22.8009 154.997 20.2788C154.997 20.2788 153.707 21.5198 150.723 21.5198" fill="#C0C0C0"/>
<path d="M44.0386 25.0784C41.136 21.9329 40.2281 16.7021 40.0493 13.2254C39.8953 10.2217 40.0597 5.0198 42.4547 3.50585C41.6529 2.50985 40.0714 2.10861 38.8696 2.10861C36.1694 2.10861 34.8677 3.88611 33.9443 5.16428C33.6393 5.5865 29.0987 11.777 29.0987 11.777C29.0987 11.777 25.2795 5.9378 24.8101 5.23637C24.1614 4.26844 22.9467 2.48977 20.8118 2.18189C19.8925 2.04923 17.5077 1.92868 16.2097 3.68933C18.4471 5.45856 18.3912 9.96407 17.9053 13.0401C16.4479 22.2733 12.4727 23.1236 12.4727 23.1236C14.5089 28.5586 19.7529 26.4112 21.2349 22.078C22.1945 19.2613 22.8143 15.696 22.9572 12.7393L28.7121 21.464C28.7121 21.464 35.2286 12.7665 35.2286 12.7742C34.1553 28.1559 39.5004 32.5163 44.1746 32.5163C48.8528 32.5163 50.4447 28.2883 50.4447 28.2883C47.9152 28.1373 45.7014 26.8801 44.0386 25.0784Z" fill="#C0C0C0"/>
<path d="M58.6367 30.0811C58.6928 30.3072 58.7222 30.5294 58.7371 30.7527C58.7377 30.8206 58.7329 38.7999 58.7368 38.8954C58.7571 39.5658 59.3847 40.1189 60.0298 40.1505C60.7159 40.1847 61.3952 39.5953 61.4295 38.8954C61.4325 38.8041 61.4295 31.6181 61.4295 31.6181C61.4233 31.0148 61.4828 30.3979 61.1949 29.8439C60.889 29.2275 60.1356 28.7525 59.2256 28.7525C58.4352 28.7525 57.9673 29.3726 57.9673 29.3726C57.9673 29.3726 58.4289 29.5334 58.6367 30.0811Z" fill="#C0C0C0"/>
<path d="M143.991 38.823C143.935 38.5969 143.905 38.3753 143.89 38.1511C143.889 38.0834 143.894 30.1045 143.891 30.0096C143.87 29.3389 143.243 28.7858 142.597 28.7536C141.912 28.72 141.232 29.3094 141.198 30.0096C141.195 30.1009 141.198 37.2863 141.198 37.2863C141.204 37.8893 141.145 38.5059 141.432 39.0611C141.738 39.6772 142.491 40.1516 143.402 40.1516C144.192 40.1516 144.66 39.5321 144.66 39.5321C144.66 39.5321 144.198 39.3705 143.991 38.823" fill="#C0C0C0"/>
<path d="M95.2738 32.8836C93.8738 32.8836 93.0451 34.0471 92.8104 34.4276L92.8024 34.4335C92.8021 34.0485 92.8008 33.7442 92.8008 33.7288C92.7802 33.0587 92.153 32.5579 91.5081 32.5269C90.8229 32.4926 90.1431 33.0297 90.109 33.7288C90.1069 33.8198 90.1069 38.8229 90.109 38.8905C90.1299 39.5598 90.7569 40.1129 91.4023 40.1445C92.0875 40.1782 92.7665 39.5893 92.8008 38.8905C92.8024 38.8389 92.8032 37.2061 92.8026 35.8L92.8137 35.7925C92.9294 35.2524 93.237 34.7004 93.7016 34.7004C94.3031 34.7004 94.3363 35.362 94.3393 35.362L94.3333 38.8904C94.3542 39.5596 94.9811 40.1127 95.6266 40.1443C96.3118 40.178 96.9907 39.5892 97.0251 38.8904L97.0215 37.0464C97.0215 35.1504 97.2215 32.8745 95.2738 32.8834" fill="#C0C0C0"/>
<path d="M129.686 32.8836C128.286 32.8836 127.457 34.0471 127.222 34.4276L127.215 34.4335C127.214 34.0485 127.213 33.7442 127.213 33.7288C127.192 33.0587 126.565 32.5579 125.92 32.5269C125.235 32.4926 124.555 33.0297 124.521 33.7288C124.519 33.8198 124.519 38.8229 124.521 38.8905C124.542 39.5598 125.169 40.1129 125.814 40.1445C126.5 40.1782 127.179 39.5893 127.213 38.8905C127.215 38.8389 127.216 37.2061 127.215 35.8L127.226 35.7925C127.341 35.2524 127.649 34.7004 128.114 34.7004C128.715 34.7004 128.749 35.362 128.751 35.362L128.746 38.8904C128.766 39.5596 129.393 40.1127 130.039 40.1443C130.724 40.178 131.403 39.5892 131.437 38.8904L131.434 37.0464C131.434 35.1504 131.634 32.8745 129.686 32.8834" fill="#C0C0C0"/>
<path d="M67.9408 32.8836C66.5411 32.8836 65.712 34.0471 65.4773 34.4276L65.4696 34.4335C65.469 34.0485 65.468 33.7442 65.468 33.7288C65.4474 33.0587 64.8205 32.5579 64.175 32.5269C63.4901 32.4926 62.81 33.0297 62.7762 33.7288C62.7738 33.8198 62.7738 38.8229 62.7762 38.8905C62.7971 39.5598 63.4243 40.1129 64.0695 40.1445C64.7544 40.1782 65.4333 39.5893 65.468 38.8905C65.4696 38.8389 65.4701 37.2061 65.4696 35.8L65.4809 35.7925C65.5963 35.2524 65.9042 34.7004 66.3688 34.7004C66.9703 34.7004 67.0035 35.362 67.0065 35.362L67.0008 38.8904C67.0212 39.5596 67.6484 40.1127 68.2935 40.1443C68.979 40.178 69.658 39.5892 69.6924 38.8904L69.6885 37.0464C69.6885 35.1504 69.8888 32.8745 67.9407 32.8834" fill="#C0C0C0"/>
<path d="M119.927 32.5494C117.809 32.5494 116.092 34.2454 116.092 36.3387C116.092 38.4324 117.809 40.1277 119.927 40.1277C122.044 40.1277 123.761 38.4324 123.761 36.3387C123.761 34.2454 122.044 32.5494 119.927 32.5494ZM119.955 38.5183V38.52C119.951 38.52 119.949 38.5194 119.946 38.5194C119.943 38.5194 119.94 38.52 119.939 38.52V38.5183C119.214 38.5044 118.852 37.6834 118.852 36.3387C118.852 34.9961 119.311 34.1733 119.939 34.1585V34.1582C119.94 34.1582 119.943 34.1582 119.946 34.1585C119.949 34.1582 119.951 34.1582 119.955 34.1582V34.1585C120.581 34.1732 121.041 34.9961 121.041 36.3387C121.041 37.6834 120.679 38.5045 119.955 38.5183Z" fill="#C0C0C0"/>
<path d="M105.608 33.6373C105.586 32.9359 104.918 32.3562 104.243 32.3228C103.525 32.2876 102.813 32.9046 102.777 33.6373C102.777 33.6881 102.77 33.7971 102.77 33.8169C102.43 33.3495 101.683 32.5604 100.505 32.5604C97.2635 32.5604 97.0581 38.2645 99.2809 39.6754C99.9081 40.0728 100.853 40.1744 101.569 39.9912C101.972 39.8869 102.568 39.5462 102.839 39.1113C103.004 39.6715 103.566 40.0981 104.143 40.1265C104.861 40.1617 105.572 39.5457 105.608 38.8126C105.611 38.7172 105.61 33.7014 105.608 33.6373H105.608ZM101.495 38.2279V38.2287C101.493 38.2287 101.49 38.2284 101.488 38.2284C101.484 38.2284 101.482 38.2287 101.479 38.2287V38.2279C100.754 38.2167 100.392 37.4987 100.392 36.3281C100.392 35.1586 100.851 34.4421 101.479 34.4285V34.4277C101.482 34.4277 101.484 34.4285 101.488 34.4285C101.49 34.4285 101.493 34.4277 101.495 34.4277V34.4285C102.123 34.4421 102.583 35.1586 102.583 36.3281C102.583 37.4987 102.219 38.2167 101.495 38.2279Z" fill="#C0C0C0"/>
<path d="M139.992 33.6373C139.971 32.9359 139.303 32.3562 138.627 32.3228C137.909 32.2876 137.198 32.9046 137.161 33.6373C137.16 33.6881 137.153 33.7971 137.153 33.8169C136.814 33.3495 136.066 32.5604 134.888 32.5604C131.647 32.5604 131.442 38.2645 133.665 39.6754C134.292 40.0728 135.237 40.1744 135.952 39.9912C136.356 39.8869 136.952 39.5462 137.223 39.1113C137.388 39.6715 137.95 40.0981 138.526 40.1265C139.245 40.1617 139.956 39.5457 139.992 38.8126C139.995 38.7172 139.993 33.7014 139.992 33.6373H139.992ZM135.88 38.2279V38.2287C135.876 38.2287 135.874 38.2284 135.872 38.2284C135.868 38.2284 135.867 38.2287 135.862 38.2287V38.2279C135.139 38.2167 134.776 37.4987 134.776 36.3281C134.776 35.1586 135.236 34.4421 135.862 34.4285V34.4277C135.867 34.4277 135.868 34.4285 135.872 34.4285C135.874 34.4285 135.876 34.4277 135.88 34.4277V34.4285C136.507 34.4421 136.967 35.1586 136.967 36.3281C136.967 37.4987 136.603 38.2167 135.88 38.2279Z" fill="#C0C0C0"/>
<path d="M115.248 34.3511C115.216 33.6902 114.69 33.172 114.028 33.1167C113.988 33.1125 113.952 33.1046 113.913 33.1046C113.314 33.1046 112.56 33.6169 112.56 34.2646L112.563 36.7181H112.56C112.568 37.4833 112.559 38.8658 112.56 38.8814C112.592 39.5424 113.117 40.0609 113.779 40.1159C113.819 40.1209 113.855 40.128 113.894 40.128C114.493 40.128 115.248 39.6157 115.248 38.9683L115.245 36.9184H115.248C115.239 36.1523 115.249 34.3662 115.248 34.3511Z" fill="#C0C0C0"/>
<path d="M115.238 31.0331C115.238 31.7608 114.64 32.3506 113.904 32.3506C113.166 32.3506 112.569 31.7608 112.569 31.0331C112.569 30.3039 113.166 29.7133 113.904 29.7133C114.64 29.7133 115.238 30.3039 115.238 31.0331Z" fill="#C0C0C0"/>
<path d="M87.9658 32.792C87.1663 32.8245 86.7711 33.4131 86.227 34.1523C86.2231 34.1582 86.2276 33.8107 86.2273 33.7974C86.2064 33.1279 85.5798 32.5748 84.9355 32.5426C84.2491 32.509 83.5701 33.0978 83.5361 33.7974V38.9063H83.5337C83.5543 39.5764 84.1809 40.1298 84.8264 40.1611C85.5056 40.1942 86.1774 39.616 86.2231 38.9258H86.2292L86.2286 35.6896C86.2692 35.2151 86.4785 34.6224 86.8647 34.6253C87.4109 34.6304 86.8465 35.936 88.0997 35.936C89.8971 35.936 90.089 32.7054 87.9658 32.792" fill="#C0C0C0"/>
<path d="M82.4761 37.7797C82.4761 37.7797 82.0617 38.3405 80.4545 38.3405C78.8467 38.3405 78.5008 37.1058 78.5008 37.1058C80.8443 37.1058 82.8094 36.9503 82.8094 35.0756C82.8094 33.2012 80.6658 32.5831 79.3947 32.5831C77.2957 32.5831 75.7617 34.2371 75.7617 36.4206C75.7617 38.8803 77.7588 40.1272 79.4168 40.1272C82.3361 40.1272 82.4761 37.7797 82.4761 37.7797ZM78.3489 35.9023C78.4308 35.304 78.5764 34.5497 79.1217 34.2008C79.5738 33.9103 80.2072 34.241 80.2171 34.7997C80.2273 35.3903 79.841 35.7924 79.3032 35.9044C79.2461 35.9162 78.3408 35.9614 78.3489 35.9027" fill="#C0C0C0"/>
<path d="M75.5988 38.7272C75.5988 38.7272 74.899 40.128 73.6051 40.128C72.5402 40.128 71.2295 39.1985 71.1748 37.853C71.1739 37.8406 71.1674 35.9044 71.1623 34.2861H70.8008C70.6119 34.2861 70.2773 34.1748 70.2773 33.6884C70.2773 33.2024 70.6537 33.0993 70.8397 33.0993H71.1593C71.1578 32.5335 71.1572 32.1447 71.1581 32.1204C71.1919 31.4225 71.8699 30.8352 72.5536 30.8691C73.1973 30.9011 73.8392 31.4521 73.8595 32.1204V33.0987H74.9991C75.157 33.0987 75.5223 33.2006 75.5223 33.6961C75.5223 34.1913 75.157 34.2861 74.9597 34.2861H73.8595V37.2579C73.8595 38.2223 74.6996 38.7228 75.6024 38.7258" fill="#C0C0C0"/>
<path d="M111.616 38.7272C111.616 38.7272 110.915 40.128 109.622 40.128C108.557 40.128 107.246 39.1985 107.192 37.853C107.191 37.8406 107.184 35.9044 107.179 34.2861H106.818C106.628 34.2861 106.294 34.1748 106.294 33.6884C106.294 33.2024 106.671 33.0993 106.857 33.0993H107.176C107.174 32.5335 107.174 32.1447 107.175 32.1204C107.209 31.4225 107.887 30.8352 108.57 30.8691C109.214 30.9011 109.856 31.4521 109.876 32.1204V33.0987H111.016C111.173 33.0987 111.539 33.2006 111.539 33.6961C111.539 34.1913 111.173 34.2861 110.976 34.2861H109.876V37.2579C109.876 38.2223 110.716 38.7228 111.619 38.7258" fill="#C0C0C0"/>
</svg>
