<svg width="20" height="20" viewBox="0 0 20 20" fill="none" xmlns="http://www.w3.org/2000/svg">
<path d="M10.5416 8.33333C9.85825 6.39167 8.00825 5 5.83325 5C3.07492 5 0.833252 7.24167 0.833252 10C0.833252 12.7583 3.07492 15 5.83325 15C8.00825 15 9.85825 13.6083 10.5416 11.6667H14.1666V15H17.4999V11.6667H19.1666V8.33333H10.5416ZM5.83325 11.6667C4.91658 11.6667 4.16658 10.9167 4.16658 10C4.16658 9.08333 4.91658 8.33333 5.83325 8.33333C6.74992 8.33333 7.49992 9.08333 7.49992 10C7.49992 10.9167 6.74992 11.6667 5.83325 11.6667Z" fill="#999999"/>
</svg>
